<svg xmlns="http://www.w3.org/2000/svg" width="57" height="56" viewBox="0 0 57 56" fill="none">
  <circle cx="28.7891" cy="28" r="28" fill="#274C5B"/>
  <path d="M25.566 39.0001C26.241 39.0001 26.7882 38.4529 26.7882 37.7779C26.7882 37.1029 26.241 36.5557 25.566 36.5557C24.891 36.5557 24.3438 37.1029 24.3438 37.7779C24.3438 38.4529 24.891 39.0001 25.566 39.0001Z" fill="white" stroke="white" stroke-width="1.5" stroke-linecap="round" stroke-linejoin="round"/>
  <path d="M34.1207 39.0001C34.7957 39.0001 35.3429 38.4529 35.3429 37.7779C35.3429 37.1029 34.7957 36.5557 34.1207 36.5557C33.4456 36.5557 32.8984 37.1029 32.8984 37.7779C32.8984 38.4529 33.4456 39.0001 34.1207 39.0001Z" fill="white" stroke="white" stroke-width="1.5" stroke-linecap="round" stroke-linejoin="round"/>
  <path d="M15.7891 17H19.571L22.4074 33.0731H37.535" stroke="white" stroke-width="2" stroke-linecap="round" stroke-linejoin="round"/>
  <path d="M21.8993 29.1837L37.1465 29.2907C37.2558 29.2908 37.3618 29.2529 37.4464 29.1837C37.5309 29.1144 37.5889 29.0179 37.6103 28.9107L39.3122 20.4014C39.3259 20.3328 39.3243 20.262 39.3073 20.1941C39.2904 20.1262 39.2585 20.063 39.2142 20.0089C39.1698 19.9548 39.1139 19.9112 39.0507 19.8813C38.9874 19.8514 38.9183 19.8359 38.8483 19.8359L20.3555 19.8359" stroke="white" stroke-width="2" stroke-linecap="round" stroke-linejoin="round"/>
</svg>