<svg xmlns="http://www.w3.org/2000/svg" width="39" height="56" viewBox="0 0 39 56" fill="none">
  <path d="M1.85156 42.0684H19.2919H36.7322" stroke="#7EB693" stroke-width="2" stroke-miterlimit="10"/>
  <path d="M5.78906 48.5L19.2891 48.5L32.7891 48.5" stroke="#7EB693" stroke-width="2" stroke-miterlimit="10"/>
  <path d="M18.7891 1.5L18.7891 8.5L18.7891 15.5" stroke="#7EB693" stroke-width="2" stroke-miterlimit="10"/>
  <path d="M18.8672 14.7852V41.2167" stroke="#7EB693" stroke-width="2" stroke-miterlimit="10"/>
  <path d="M29.9269 4.55273L18.8672 15.6369" stroke="#7EB693" stroke-width="2" stroke-miterlimit="10"/>
  <path d="M34.1806 8.81641L18.8672 24.1638" stroke="#7EB693" stroke-width="2" stroke-miterlimit="10"/>
  <path d="M36.7329 15.6367L18.8672 32.6893" stroke="#7EB693" stroke-width="2" stroke-miterlimit="10"/>
  <path d="M37.5836 23.3105L18.8672 42.0684" stroke="#7EB693" stroke-width="2" stroke-miterlimit="10"/>
  <path d="M37.584 31.8379L27.375 42.0695" stroke="#7EB693" stroke-width="2" stroke-miterlimit="10"/>
  <path d="M1 31.8379L11.209 42.0695" stroke="#7EB693" stroke-width="2" stroke-miterlimit="10"/>
  <path d="M8.65625 4.55273L18.8652 15.6369" stroke="#7EB693" stroke-width="2" stroke-miterlimit="10"/>
  <path d="M4.40234 8.81641L18.865 24.1638" stroke="#7EB693" stroke-width="2" stroke-miterlimit="10"/>
  <path d="M1.85156 14.7852L18.8665 32.6904" stroke="#7EB693" stroke-width="2" stroke-miterlimit="10"/>
  <path d="M1 22.459L18.8657 41.2169" stroke="#7EB693" stroke-width="2" stroke-miterlimit="10"/>
  <path d="M19.291 54.8584C9.19019 54.8584 1 46.4061 1 35.9777V20.0232C1 9.59677 9.19019 1.14258 19.291 1.14258C29.3937 1.14258 37.5821 9.59677 37.5821 20.0232V35.9777C37.5839 46.4061 29.3937 54.8584 19.291 54.8584Z" stroke="#7EB693" stroke-width="2" stroke-miterlimit="10"/>
</svg>