<svg xmlns="http://www.w3.org/2000/svg" width="57" height="56" viewBox="0 0 57 56" fill="none">
  <circle cx="28.7891" cy="28" r="28" fill="#7EB693"/>
  <path d="M40.4672 35.8921L35.7066 31.1315C36.8527 29.6057 37.4715 27.7485 37.4694 25.8402C37.4694 20.9657 33.5037 17 28.6292 17C23.7548 17 19.7891 20.9657 19.7891 25.8402C19.7891 30.7146 23.7548 34.6803 28.6292 34.6803C30.5375 34.6824 32.3948 34.0637 33.9206 32.9175L38.6812 37.6781C38.9221 37.8936 39.2364 38.0085 39.5595 37.9995C39.8826 37.9905 40.19 37.8581 40.4186 37.6295C40.6471 37.401 40.7795 37.0936 40.7886 36.7705C40.7976 36.4474 40.6826 36.1331 40.4672 35.8921ZM22.3148 25.8402C22.3148 24.5913 22.6852 23.3705 23.379 22.3321C24.0728 21.2937 25.059 20.4843 26.2128 20.0064C27.3666 19.5285 28.6362 19.4034 29.8611 19.6471C31.086 19.8907 32.2111 20.4921 33.0942 21.3752C33.9773 22.2583 34.5786 23.3834 34.8223 24.6083C35.0659 25.8332 34.9409 27.1028 34.463 28.2566C33.985 29.4104 33.1757 30.3966 32.1373 31.0904C31.0989 31.7842 29.8781 32.1546 28.6292 32.1546C26.9552 32.1526 25.3502 31.4866 24.1665 30.3029C22.9827 29.1192 22.3168 27.5142 22.3148 25.8402Z" fill="#FAFAFA"/>
</svg>